# xmcd
#
# Track frame offsets:
#	150
#	16408
#	34611
#	53112
#	69382
#	82565
#	102437
#	118200
#	136304
#	156035
#	173649
#	190282
#	208808
#	228091
#	244926
#	263051
#	282249
#
# Disc length: 4007
#
# Revision: 1
# Processed by: cddbd v1.5.2PL0 Copyright (c) Steve Scherf et al.
# Submitted via: kJams Pro (development) 1.0patch49.66
#
DISCID=e10fa511
DTITLE=Ronnie Milsap - CB 5106−2
DYEAR=1975
DGENRE=Country
TTITLE0=Ronnie Milsap - It Was Almost Like A Song
TTITLE1=Ronnie Milsap - Smoky Mountain Rain
TTITLE2=Ronnie Milsap - Why Don't You Spend The Night
TTITLE3=Ronnie Milsap - Cowboys And Clowns
TTITLE4=Ronnie Milsap - My Heart
TTITLE5=Ronnie Milsap - Nobody Likes Sad Songs
TTITLE6=Ronnie Milsap - There's No Gettin' Over Me
TTITLE7=Ronnie Milsap - Any Day Now
TTITLE8=Ronnie Milsap - Prosoner of The Highway
TTITLE9=Ronnie Milsap - Am I Losing You
TTITLE10=Ronnie Milsap - Don't Know How Much I Love You
TTITLE11=Ronnie Milsap - Button Off My Shirt
TTITLE12=Ronnie Milsap - Show Her
TTITLE13=Ronnie Milsap - He Got You
TTITLE14=Ronnie Milsap - It's Already Taken
TTITLE15=Ronnie Milsap - She Keeps The Home Fires Burning
TTITLE16=Ronnie Milsap - Lost In The Fifties
EXTD=
EXTT0=
EXTT1=
EXTT2=
EXTT3=
EXTT4=
EXTT5=
EXTT6=
EXTT7=
EXTT8=
EXTT9=
EXTT10=
EXTT11=
EXTT12=
EXTT13=
EXTT14=
EXTT15=
EXTT16=
PLAYORDER=
